#!OML:ASF F:\VICON\USERDATA\INSTALL\Justin_Nancy\Justin_Nancy.ASF
:FULLY-SPECIFIED
:DEGREES
163
root -3.55558 16.8417 3.76465 -4.60287 61.187 -15.6127
lowerback 6.84802 6.22143 6.47189
upperback -1.27134 8.91895 0.994843
thorax -4.32486 4.27143 -3.41383
lowerneck -16.1752 -2.65247 -6.8754
upperneck 23.009 -2.21128 2.38735
head 10.1252 -1.25553 1.71302
rclavicle 5.77966e-014 1.82882e-014
rhumerus -35.7063 -5.53289 -77.6037
rradius 34.6294
rwrist -2.10483
rhand -22.4491 11.9252
rfingers 7.12502
rthumb 3.97507 -18.0175
lclavicle 5.77966e-014 1.82882e-014
lhumerus -47.5788 30.5675 54.797
lradius 22.705
lwrist -4.99539
lhand -22.4535 31.4816
lfingers 7.12502
lthumb 3.97085 61.4243
rfemur 12.6013 -0.318426 18.564
rtibia 28.693
rfoot 22.911 2.45344
rtoes -20.5955
lfemur -40.5814 11.2515 -32.8387
ltibia 38.506
lfoot -10.114 4.74322
ltoes 25.9648
164
root -3.36276 16.8833 3.90128 -6.44725 60.5301 -16.3173
lowerback 8.05875 6.38852 6.47296
upperback -1.05938 9.24635 1.31132
thorax -4.80266 4.41836 -3.26108
lowerneck -16.1102 -2.65381 -7.12871
upperneck 23.344 -2.23252 2.75287
head 10.2421 -1.24484 1.88648
rclavicle 1.71949e-014 -1.98785e-015
rhumerus -35.7379 -4.98265 -77.9359
rradius 34.1767
rwrist -1.32707
rhand -20.7752 12.1949
rfingers 7.12502
rthumb 5.59142 -17.7113
lclavicle 1.71949e-014 -1.98785e-015
lhumerus -48.0463 30.6149 54.9265
lradius 22.5633
lwrist -6.23501
lhand -21.7056 30.4204
lfingers 7.12502
lthumb 4.69302 60.3484
rfemur 11.7155 1.4244 19.5364
rtibia 32.6998
rfoot 23.0538 1.90472
rtoes -17.4427
lfemur -38.4907 11.4618 -31.5434
ltibia 38.8595
lfoot -10.7754 5.98368
ltoes 27.1619
165
root -3.19965 16.8984 4.04677 -10.1087 62.1149 -19.7919
lowerback 8.40968 5.63346 7.2804
upperback -0.988772 8.41306 2.16133
thorax -5.02459 3.99181 -2.78559
lowerneck -16.1337 -2.55973 -7.58021
upperneck 23.5421 -1.94971 2.6901
head 10.3102 -1.1624 1.98063
rclavicle 6.33626e-014 1.72943e-014
rhumerus -35.8045 -4.67601 -77.8672
rradius 34.0801
rwrist 0.431169
rhand -19.4128 12.453
rfingers 7.12502
rthumb 6.90666 -17.4143
lclavicle 6.33626e-014 1.72943e-014
lhumerus -48.8451 31.4425 55.1219
lradius 22.539
lwrist -7.47701
lhand -21.0308 29.2751
lfingers 7.12502
lthumb 5.34459 59.1877
rfemur 10.1106 0.562486 21.6211
rtibia 37.1315
rfoot 21.6276 0.902266
rtoes -15.4352
lfemur -36.7678 10.3051 -29.7141
ltibia 38.1924
lfoot -10.5495 5.34431
ltoes 27.0748
166
root -3.02452 16.9158 4.14869 -9.85926 63.498 -19.1893
lowerback 8.51962 5.14986 6.68102
upperback -0.907024 7.71973 2.26507
thorax -5.15415 3.66469 -2.29863
lowerneck -16.0498 -2.40231 -7.56354
upperneck 23.4819 -1.64552 2.33588
head 10.2536 -1.06165 1.89278
rclavicle -3.07122e-014 1.07344e-014
rhumerus -35.737 -5.11023 -77.6308
rradius 33.9132
rwrist 2.1777
rhand -18.7447 12.947
rfingers 7.12502
rthumb 7.55155 -16.8982
lclavicle -3.07122e-014 1.07344e-014
lhumerus -48.8006 30.9694 56.4294
lradius 22.5284
lwrist -7.60195
lhand -20.6992 28.3412
lfingers 7.12502
lthumb 5.66479 58.2455
rfemur 8.09705 -0.474601 20.9436
rtibia 41.3693
rfoot 19.6904 0.494986
rtoes -14.4325
lfemur -35.6025 9.12197 -30.1377
ltibia 38.2612
lfoot -11.0901 5.25772
ltoes 26.2761
167
root -2.84658 16.9311 4.23635 -8.97734 64.7236 -18.0983
lowerback 8.52669 4.92296 6.2592
upperback -0.930176 7.35732 2.02609
thorax -5.2297 3.48934 -2.28201
lowerneck -15.8535 -2.41999 -7.13941
upperneck 23.4884 -1.71236 2.01008
head 10.2143 -1.09151 1.69807
rclavicle -5.46658e-014 1.98785e-015
rhumerus -35.8735 -5.7877 -77.4277
rradius 33.8332
rwrist 2.77051
rhand -18.144 13.3646
rfingers 7.12502
rthumb 8.13132 -16.459
lclavicle -5.46658e-014 1.98785e-015
lhumerus -47.7842 28.9714 58.6405
lradius 22.4708
lwrist -6.89743
lhand -20.7473 27.6789
lfingers 7.12502
lthumb 5.61833 57.5844
rfemur 5.76858 -1.42993 19.9902
rtibia 45.4966
rfoot 17.6882 0.453418
rtoes -14.8641
lfemur -34.5775 7.86748 -30.728
ltibia 38.1628
lfoot -11.4965 5.57412
ltoes 26.0577
